<svg version="1.1" xmlns="http://www.w3.org/2000/svg">
  <defs>
    <symbol id="close" viewBox="0 0 30 30">
      <circle cx="15" cy="15" r="15" fill="#fff" />
      <circle cx="15" cy="15" r="14.5" stroke="#000" stroke-opacity=".1" />
      <path fill="#000"
        d="M21 10.1 19.9 9l-4.4 4.4L11.1 9 10 10.1l4.4 4.4-4.4 4.4 1.1 1.1 4.4-4.4 4.4 4.4 1.1-1.1-4.4-4.4 4.4-4.4Z" />
    </symbol>
    <symbol id="envelope" viewBox="0 -2 16 16">
      <path
        d="M14.5 0h-13C.67 0 0 .67 0 1.5v9c0 .83.67 1.5 1.5 1.5h13c.83 0 1.5-.67 1.5-1.5v-9c0-.83-.67-1.5-1.5-1.5Zm0 1a.5.5 0 0 1 .2.04L8 6.84l-6.7-5.8A.5.5 0 0 1 1.5 1h13Zm0 10h-13a.5.5 0 0 1-.5-.5V2.1l6.67 5.78a.5.5 0 0 0 .66 0L15 2.1v8.4a.5.5 0 0 1-.5.5Z" />
    </symbol>
    <symbol id="smartphone" viewBox="0 0 10 16">
      <path
        d="M8.5 0h-7c-0.827 0-1.5 0.673-1.5 1.5v13c0 0.827 0.673 1.5 1.5 1.5h7c0.827 0 1.5-0.673 1.5-1.5v-13c0-0.827-0.673-1.5-1.5-1.5zM1.5 1h7c0.276 0 0.5 0.224 0.5 0.5v10.5h-8v-10.5c0-0.276 0.224-0.5 0.5-0.5zM8.5 15h-7c-0.276 0-0.5-0.224-0.5-0.5v-1.5h8v1.5c0 0.276-0.224 0.5-0.5 0.5z">
      </path>
      <path
        d="M2.354 13.739c0.195 0.182 0.195 0.478 0 0.66s-0.512 0.182-0.707 0c-0.195-0.182-0.195-0.478 0-0.66s0.512-0.182 0.707 0z">
      </path>
    </symbol>
    <symbol id="facebook" viewBox="0 0 44 44">
      <path
        d="M25.331 15.321h1.826v-3.18c-0.315-0.043-1.398-0.141-2.66-0.141-2.632 0-4.436 1.656-4.436 4.699v2.801h-2.905v3.555h2.905v8.945h3.562v-8.944h2.788l0.442-3.555h-3.231v-2.449c0.001-1.028 0.277-1.731 1.709-1.731z" />
    </symbol>
    <symbol id="instagram" viewBox="0 0 44 44">
      <path
        d="M31.98 17.88c-0.047-1.063-0.219-1.793-0.465-2.426-0.254-0.672-0.645-1.274-1.157-1.774-0.5-0.508-1.106-0.903-1.77-1.153-0.637-0.246-1.363-0.418-2.426-0.465-1.071-0.051-1.41-0.063-4.126-0.063s-3.055 0.012-4.122 0.059c-1.063 0.047-1.793 0.219-2.426 0.465-0.672 0.254-1.274 0.645-1.774 1.157-0.508 0.5-0.903 1.106-1.153 1.77-0.246 0.637-0.418 1.363-0.465 2.426-0.051 1.071-0.063 1.41-0.063 4.126s0.012 3.055 0.059 4.122c0.047 1.063 0.219 1.793 0.465 2.426 0.254 0.672 0.648 1.274 1.156 1.774 0.5 0.508 1.106 0.903 1.77 1.153 0.637 0.246 1.363 0.418 2.426 0.465 1.066 0.047 1.406 0.059 4.122 0.059s3.055-0.012 4.122-0.059c1.063-0.047 1.793-0.219 2.426-0.465 1.344-0.52 2.407-1.582 2.927-2.926 0.246-0.637 0.418-1.364 0.465-2.426 0.047-1.067 0.059-1.407 0.059-4.122s-0.004-3.055-0.051-4.122zM30.179 26.046c-0.043 0.977-0.207 1.504-0.344 1.856-0.336 0.871-1.028 1.563-1.899 1.899-0.352 0.137-0.883 0.301-1.856 0.344-1.055 0.047-1.371 0.059-4.040 0.059s-2.989-0.012-4.040-0.059c-0.977-0.043-1.504-0.207-1.856-0.344-0.434-0.16-0.828-0.414-1.149-0.746-0.332-0.324-0.586-0.715-0.746-1.149-0.137-0.352-0.301-0.883-0.344-1.856-0.047-1.055-0.059-1.371-0.059-4.040s0.012-2.989 0.059-4.040c0.043-0.977 0.207-1.504 0.344-1.856 0.16-0.434 0.414-0.828 0.75-1.149 0.324-0.332 0.715-0.586 1.149-0.746 0.352-0.137 0.883-0.301 1.856-0.344 1.055-0.047 1.371-0.059 4.040-0.059 2.672 0 2.989 0.012 4.040 0.059 0.977 0.043 1.504 0.207 1.856 0.344 0.434 0.16 0.828 0.414 1.149 0.746 0.332 0.324 0.586 0.715 0.746 1.149 0.137 0.352 0.301 0.883 0.344 1.856 0.047 1.055 0.059 1.371 0.059 4.040s-0.012 2.981-0.059 4.036z" />
      <path
        d="M22.037 16.864c-2.836 0-5.138 2.301-5.138 5.138s2.301 5.138 5.138 5.138c2.837 0 5.138-2.301 5.138-5.138s-2.301-5.138-5.138-5.138zM22.037 25.335c-1.84 0-3.333-1.492-3.333-3.333s1.493-3.333 3.333-3.333c1.84 0 3.333 1.493 3.333 3.333s-1.492 3.333-3.333 3.333z" />
      <path
        d="M28.577 16.661c0 0.662-0.537 1.199-1.2 1.199s-1.199-0.537-1.199-1.199c0-0.662 0.537-1.199 1.199-1.199s1.2 0.537 1.2 1.199z" />
    </symbol>
    <symbol id="linkedin" viewBox="0 0 44 44">
      <path
        d="M31.995 32v-0.001h0.005v-7.335c0-3.588-0.772-6.353-4.967-6.353-2.017 0-3.37 1.107-3.922 2.156h-0.058v-1.821h-3.977v13.352h4.142v-6.612c0-1.741 0.33-3.424 2.486-3.424 2.124 0 2.156 1.987 2.156 3.536v6.501h4.138z" />
      <path d="M12.33 18.647h4.147v13.352h-4.147v-13.352z" />
      <path
        d="M14.402 12c-1.326 0-2.402 1.076-2.402 2.402s1.076 2.424 2.402 2.424c1.326 0 2.402-1.098 2.402-2.424s-1.077-2.402-2.402-2.402v0z" />
    </symbol>
    <symbol id="twitter" viewBox="0 0 44 44">
      <path
        d="M32 15.799c-0.744 0.326-1.536 0.542-2.363 0.647 0.85-0.507 1.499-1.305 1.804-2.266-0.792 0.472-1.667 0.806-2.6 0.992-0.753-0.801-1.825-1.297-2.995-1.297-2.27 0-4.098 1.843-4.098 4.101 0 0.325 0.027 0.637 0.095 0.935-3.409-0.166-6.425-1.8-8.451-4.289-0.354 0.614-0.561 1.316-0.561 2.073 0 1.42 0.731 2.679 1.821 3.408-0.659-0.013-1.305-0.204-1.853-0.505 0 0.013 0 0.029 0 0.045 0 1.993 1.421 3.647 3.285 4.029-0.334 0.091-0.698 0.135-1.075 0.135-0.262 0-0.527-0.015-0.776-0.070 0.531 1.624 2.039 2.818 3.831 2.856-1.395 1.091-3.166 1.749-5.084 1.749-0.336 0-0.659-0.015-0.981-0.056 1.816 1.171 3.969 1.84 6.29 1.84 7.545 0 11.67-6.25 11.67-11.668 0-0.181-0.006-0.356-0.015-0.53 0.814-0.578 1.498-1.299 2.055-2.129z" />
    </symbol>
    <!-- Clients -->

    <symbol id="Client-1" viewBox="0 0 106 60">
      <path
        d="m38 7 7 6.63H32V45.8h34v-12.3l7 6.62V7H38zm27.7 25.73L45.81 13.92H65.7v18.8zm-6.18 8.38H37.38V19.46h1.56v20.18h20.58v1.47zM42.61 50.1l-.82 1.68-.82-1.68h-.68l1.2 2.24v1.31h.61v-1.3l1.2-2.25h-.7zm1.03 3.55.28-.82h1.38l.3.82h.64l-1.35-3.55h-.55l-1.35 3.55h.65zm.97-2.8.52 1.48H44.1l.51-1.48zm3.26 1.4a.81.81 0 0 0-.13.45c0 .3.1.54.31.72.21.2.5.28.85.28s.65-.1.9-.28l.2.23h.7l-.53-.61c.2-.28.3-.64.3-1.08h-.5c0 .24-.06.46-.16.65l-.68-.81.24-.18c.17-.12.3-.24.37-.37a.78.78 0 0 0 .11-.4.73.73 0 0 0-.25-.57.9.9 0 0 0-.63-.23.95.95 0 0 0-.69.24.87.87 0 0 0-.25.66c0 .12.03.23.08.36.06.12.15.27.3.44-.27.19-.45.35-.54.5zm1.6.78a.9.9 0 0 1-.56.2c-.17 0-.32-.05-.42-.15s-.16-.24-.16-.4c0-.2.1-.36.3-.51l.07-.06.77.92zm-.63-1.58c-.17-.2-.25-.37-.25-.51 0-.12.03-.22.1-.3s.16-.11.28-.11c.1 0 .2.03.26.1.07.06.1.14.1.23 0 .14-.04.26-.14.35l-.08.06-.27.19zm5.78 1.93c.25-.2.39-.5.42-.88h-.61c-.04.25-.11.43-.23.54s-.3.16-.55.16a.69.69 0 0 1-.6-.3c-.14-.2-.21-.5-.21-.88v-.31c0-.38.08-.67.22-.87.14-.2.35-.29.62-.29.23 0 .4.06.52.17.12.11.2.3.23.55h.61c-.03-.39-.17-.69-.41-.9s-.56-.32-.95-.32c-.3 0-.55.07-.77.2-.22.14-.4.34-.51.6s-.18.55-.18.88v.34c0 .32.07.61.18.86s.29.44.5.57c.22.14.47.2.75.2.4 0 .73-.1.97-.31zm3.63-.5c.12-.26.18-.56.18-.91v-.2c0-.35-.06-.65-.18-.91a1.36 1.36 0 0 0-1.3-.81c-.28 0-.54.07-.76.21-.23.14-.4.34-.52.6-.13.27-.19.58-.19.93v.2c0 .34.07.64.19.9s.3.46.52.6c.23.14.48.21.77.21.3 0 .55-.07.77-.2.23-.15.4-.35.52-.61zm-.66-2c.15.2.23.51.23.9v.19c0 .4-.08.7-.23.91a.72.72 0 0 1-.63.31.74.74 0 0 1-.63-.32 1.55 1.55 0 0 1-.23-.9v-.2c0-.39.08-.68.23-.9a.73.73 0 0 1 .63-.3c.27 0 .48.1.63.3z" />
    </symbol>
    <symbol id="Client-2" viewBox="0 0 106 60">
      <path
        d="M50.11 5.93h-.13l-.63-.02h-.46a23.18 23.18 0 0 0-1.3.03c-3.64.2-7.2 1.12-10.5 2.68l-.44.21v22.14l1.01-.34a34.35 34.35 0 0 1 10.9-1.91v2.91l-1.06.03h-.08a32.38 32.38 0 0 0-13.65 3.85V7.1a29.74 29.74 0 0 1 7.79-3.16c2.4-.62 4.86-.94 7.33-.95h.43a21.11 21.11 0 0 1 5.13.65v2.87a22.65 22.65 0 0 0-3.54-.54h-.07c-.25-.03-.5-.05-.73-.05zm5.04 2.93a31.46 31.46 0 0 0 9.67-.92 31.76 31.76 0 0 0 7.42-2.9v27.9a29.83 29.83 0 0 1-7.79 3.17c-2.4.61-4.86.93-7.33.94a22.4 22.4 0 0 1-5.57-.66V8.32a22.92 22.92 0 0 0 3.6.54zm14.2.22-1.02.34a34.26 34.26 0 0 1-13.07 1.86l-.8-.05v22.78l.69.06a26.85 26.85 0 0 0 8.6-.77 27.73 27.73 0 0 0 5.16-1.86l.44-.21V9.08zM35.74 45.21a1.5 1.5 0 0 0-1.13-.45 1.66 1.66 0 0 0-1.15.45 1.65 1.65 0 0 0-.44 1.14v3.8a1.53 1.53 0 0 0 .53 1.29c.14.12.32.21.51.26.19.05.38.08.57.08a1.59 1.59 0 0 0 1.57-1.6v-.42h-1v.34c.01.11 0 .23-.05.33a.6.6 0 0 1-.14.22.73.73 0 0 1-.41.15.5.5 0 0 1-.47-.21.9.9 0 0 1-.13-.51v-3.54c-.01-.2.03-.39.12-.56.05-.08.12-.15.2-.19s.19-.06.28-.04a.53.53 0 0 1 .45.21.8.8 0 0 1 .16.5v.34h.98v-.39a1.78 1.78 0 0 0-.45-1.2zM41.63 45.17a1.77 1.77 0 0 0-1.72-.31c-.2.07-.37.17-.52.3-.17.16-.3.34-.39.54-.1.23-.15.48-.14.74v3.63c-.01.26.04.51.14.75.09.2.22.37.39.5.15.15.32.26.52.33a1.74 1.74 0 0 0 1.18 0 1.55 1.55 0 0 0 1.05-1.57v-3.64a1.65 1.65 0 0 0-.52-1.27zm-.46 4.9a.66.66 0 0 1-.2.53.73.73 0 0 1-.94 0 .65.65 0 0 1-.2-.53v-3.64a.66.66 0 0 1 .2-.52.73.73 0 0 1 .94 0 .65.65 0 0 1 .2.52v3.64zM49.37 51.7V44.8h-.96l-1.25 3.65h-.02l-1.26-3.65h-.94v6.89h.98v-4.2h.02l.96 2.97h.5l.96-2.96h.02v4.19h.99zM54.96 45.3c-.15-.18-.35-.3-.56-.38a2.18 2.18 0 0 0-.71-.1h-1.46v6.88h.98v-2.69h.5c.31.01.61-.05.89-.19.22-.12.4-.3.54-.52.11-.19.19-.4.22-.6a4.88 4.88 0 0 0-.04-1.77 1.47 1.47 0 0 0-.36-.63zm-.5 2.1c-.01.12-.04.24-.1.35-.06.1-.14.2-.25.25a1 1 0 0 1-.47.08h-.44v-2.34h.5c.15 0 .3.02.45.08.1.06.18.15.23.26a1 1 0 0 1 .08.38V47.4zM59.6 44.81h-.8L57.3 51.7h.98l.29-1.48h1.33l.3 1.48h.97l-1.55-6.89zm-.9 4.47.48-2.5h.02l.48 2.5h-.98zM65.95 48.96h-.02l-1.48-4.15h-.94v6.89h.98v-4.14h.02L66 51.7h.92v-6.89h-.98v4.15zM71.95 44.81l-.8 2.74h-.01l-.79-2.74h-1.04l1.35 3.98v2.91h.98v-2.91l1.35-3.98h-1.04zM33 53.65h.47v1.32h.32v-1.32h.47v-.28H33v.28zM36.98 53.37l-.62 1.6h.34l.13-.36h.64l.13.36h.35l-.63-1.6h-.34zm-.05.97.21-.6.22.6h-.43zM40.9 54.38h.38v.2a.62.62 0 0 1-.38.14c-.07 0-.13 0-.2-.03s-.1-.07-.14-.12a.67.67 0 0 1-.12-.42c0-.35.15-.53.46-.53a.34.34 0 0 1 .36.25l.32-.06c-.07-.31-.3-.47-.68-.47a.8.8 0 0 0-.56.2.79.79 0 0 0-.23.62c-.01.22.06.44.2.6a.78.78 0 0 0 .61.24c.25 0 .5-.09.68-.26v-.63h-.7v.27zM44.92 53.37h-.32v1.6h1.12v-.27h-.8v-1.33zM48.32 53.37h-.33v1.6h.33v-1.6zM51.64 54.44l-.66-1.07h-.31v1.6h.3v-1.04l.64 1.04h.32v-1.6h-.3v1.07zM54.64 54.27h.8v-.28h-.8v-.35h.85v-.27h-1.18v1.6h1.22v-.27h-.9v-.43zM61.91 54h-.63v-.63h-.32v1.6h.32v-.7h.63v.7h.32v-1.6h-.32V54zM64.93 54.27h.8v-.28h-.8v-.35h.86v-.27h-1.18v1.6h1.21v-.27h-.89v-.43zM69.02 54.27c.28-.05.42-.2.42-.45a.38.38 0 0 0-.15-.35.9.9 0 0 0-.47-.1h-.68v1.6h.32v-.67h.06c.07 0 .14.01.2.04.05.03.09.07.12.12l.35.5h.38l-.2-.3c-.08-.16-.2-.3-.35-.4zm-.32-.22h-.24v-.4h.25c.11-.02.23 0 .33.03a.21.21 0 0 1 .07.17.21.21 0 0 1-.09.16.92.92 0 0 1-.32.03zM72.11 54.27h.8v-.28h-.8v-.35h.86v-.27h-1.18v1.6H73v-.27h-.89v-.43z" />
    </symbol>
    <symbol id="Client-3" viewBox="0 0 106 60">
      <path
        d="m36.4 49.1.05.01.04.02.22.21c-.17.17-.38.3-.62.4-.27.1-.57.15-.87.14a2.3 2.3 0 0 1-.81-.13 1.67 1.67 0 0 1-1.01-.95 1.94 1.94 0 0 1 0-1.5c.1-.2.24-.4.43-.57a2 2 0 0 1 .65-.38 2.54 2.54 0 0 1 1.63 0c.21.07.41.19.58.33l-.18.22a.18.18 0 0 1-.05.04.13.13 0 0 1-.07.02.18.18 0 0 1-.08-.03l-.1-.06-.13-.07a1.45 1.45 0 0 0-.43-.13 1.96 1.96 0 0 0-.93.07 1.29 1.29 0 0 0-.78.72 1.5 1.5 0 0 0-.12.6c0 .2.04.4.12.59a1.26 1.26 0 0 0 .76.72c.17.06.36.1.55.1.11 0 .23-.01.34-.03a1.3 1.3 0 0 0 .72-.3.17.17 0 0 1 .1-.04zM42.7 48.05c0 .26-.04.5-.14.74-.1.22-.23.41-.41.57s-.4.3-.65.38c-.53.18-1.12.18-1.66 0a1.9 1.9 0 0 1-.64-.38 1.66 1.66 0 0 1-.41-.58c-.2-.47-.2-1 0-1.47.1-.22.23-.42.41-.58.19-.16.4-.28.64-.36a2.61 2.61 0 0 1 1.66 0 1.7 1.7 0 0 1 1.2 1.69zm-.57 0c0-.2-.03-.4-.1-.59a1.22 1.22 0 0 0-.76-.72 1.92 1.92 0 0 0-1.2 0 1.3 1.3 0 0 0-.46.28 1.2 1.2 0 0 0-.3.44c-.13.39-.13.8 0 1.19a1.22 1.22 0 0 0 .76.72c.39.12.82.12 1.2 0 .18-.06.34-.16.47-.28.13-.13.23-.28.29-.44.07-.2.1-.4.1-.6zM47 48.67l.06.14.06-.14.07-.13 1.4-2.2.07-.07a.37.37 0 0 1 .12 0h.41v3.57h-.49v-2.86l-1.4 2.23-.08.08a.23.23 0 0 1-.12.03h-.08l-.12-.03a.18.18 0 0 1-.08-.08l-1.44-2.25v2.88h-.48v-3.58h.42c.03 0 .07 0 .11.02.03.01.06.04.08.07l1.42 2.2.07.13zM52.24 48.5v1.34h-.54v-3.58h1.21c.24 0 .46.03.68.08.18.05.34.12.48.23.12.1.22.21.28.35.06.14.1.3.09.45a1 1 0 0 1-.4.81c-.13.12-.3.2-.48.25a2.3 2.3 0 0 1-.65.08l-.66-.01zm0-.39h.66c.15 0 .29-.01.43-.05a.9.9 0 0 0 .3-.16.68.68 0 0 0 .25-.54c0-.1-.01-.2-.05-.28s-.11-.18-.2-.25c-.2-.14-.46-.2-.73-.19h-.66v1.47zM59.57 49.84h-.43a.2.2 0 0 1-.19-.11l-.37-.87h-1.86l-.39.87a.2.2 0 0 1-.19.11h-.43l1.64-3.58h.57l1.65 3.58zm-2.7-1.33h1.54l-.65-1.45c-.05-.11-.09-.23-.12-.34l-.06.19-.06.15-.65 1.45zM61.93 46.28l.08.06 2.39 2.7V46.26h.48v3.58h-.27c-.04 0-.07 0-.11-.02a.3.3 0 0 1-.09-.06l-2.38-2.7v2.78h-.49v-3.58h.3c.03 0 .06 0 .09.02zM68.9 48.42v1.42h-.54v-1.42l-1.51-2.16h.49a.2.2 0 0 1 .12.03.3.3 0 0 1 .07.08l.94 1.4a2.1 2.1 0 0 1 .17.31l.07-.15.1-.16.92-1.4a.4.4 0 0 1 .07-.08.18.18 0 0 1 .12-.04h.5l-1.52 2.17zM46.73 40.26l.72.06c3.68-1.43 6.8-3.77 8.95-6.73s3.26-6.4 3.18-9.9l-4.06-3.52c.83 3.72.44 7.58-1.11 11.13s-4.21 6.65-7.68 8.96z" />
      <path
        d="m45.28 40.1.11.01c3.7-2.3 6.53-5.52 8.11-9.23s1.84-7.75.75-11.59l-5.78-5.01c2.34 4.12 3.28 8.74 2.72 13.3s-2.62 8.91-5.9 12.51zM64.87 27.83a18.04 18.04 0 0 1-6.8 9.89c-1 .76-2.08 1.43-3.22 2.01 2.79-.71 5.36-1.97 7.5-3.68s3.8-3.83 4.86-6.19l-2.34-2.03z" />
      <path
        d="m63.95 27.26-3.34-2.9c-.06 3.3-1.14 6.53-3.13 9.35s-4.8 5.12-8.16 6.67h.02c.75 0 1.5-.04 2.24-.11 3.14-1.12 5.9-2.89 8.07-5.16s3.63-4.96 4.3-7.85zM45.77 12.16 41.79 8.7C38.23 9.9 35.17 12 33 14.72S29.7 20.68 29.68 24c.01 3.66 1.43 7.2 4.03 10.09s6.23 4.93 10.31 5.81c3.65-3.86 5.79-8.63 6.1-13.62s-1.21-9.94-4.35-14.12zM73.14 26.73c-.01-4.34-2-8.5-5.54-11.58s-8.32-4.8-13.32-4.81c-2.31 0-4.6.37-6.76 1.1l24.36 21.15a14.36 14.36 0 0 0 1.26-5.86z" />
    </symbol>
    <symbol id="Client-4" viewBox="0 0 106 60">
      <path
        d="M24.15 21.1c-2.4 0-4.35 1.73-4.35 3.86 0 2.14 1.95 3.86 4.34 3.86 2.4 0 4.35-1.72 4.35-3.85 0-2.14-1.95-3.87-4.34-3.87zM56.2 19.87c-.01-2.96-1.34-5.8-3.7-7.9s-5.54-3.26-8.87-3.27c-3.33 0-6.53 1.18-8.88 3.28s-3.69 4.93-3.7 7.89v16.32S56.2 33.7 56.2 19.87zM11 41.55c0 2.06.93 4.03 2.57 5.49s3.86 2.28 6.17 2.28c2.32 0 4.54-.82 6.18-2.28s2.56-3.43 2.57-5.49V30.2S11 31.93 11 41.55zm8.74 2.03c-.45 0-.9-.11-1.27-.34s-.67-.54-.84-.91c-.17-.37-.22-.78-.13-1.18s.3-.75.63-1.04c.32-.28.72-.48 1.17-.56s.9-.03 1.32.12c.42.15.78.41 1.03.75s.39.73.39 1.13c0 .27-.06.53-.18.78s-.28.47-.5.66a2.39 2.39 0 0 1-1.62.6zM37.42 42.46h-1.69v1.75h-.88v-4.27h2.78v.71h-1.9v1.1h1.69v.71zm4.22-.29c0 .42-.07.79-.22 1.1s-.36.57-.64.74c-.28.17-.6.25-.95.25s-.67-.08-.94-.25-.5-.41-.65-.73a2.5 2.5 0 0 1-.23-1.09V42c0-.43.08-.8.23-1.12a1.69 1.69 0 0 1 1.59-.99 1.68 1.68 0 0 1 1.59 1c.15.31.22.68.22 1.1v.19zm-.89-.2c0-.44-.08-.78-.24-1.01s-.39-.35-.68-.35c-.3 0-.53.11-.69.35-.16.22-.24.56-.24 1v.21c0 .44.08.77.24 1.01s.4.37.7.37c.29 0 .51-.12.67-.35.16-.23.24-.57.24-1.01v-.21zm3.74 1.12c0-.17-.06-.3-.17-.38a2.22 2.22 0 0 0-.64-.28c-.3-.1-.54-.2-.72-.3-.48-.26-.73-.61-.73-1.05 0-.23.07-.44.2-.62s.31-.32.56-.42c.24-.1.51-.16.82-.16.3 0 .57.06.81.17.24.1.42.27.56.47.13.2.2.43.2.68h-.89c0-.2-.06-.35-.18-.45a.76.76 0 0 0-.52-.17.8.8 0 0 0-.5.14.43.43 0 0 0-.18.36c0 .14.07.25.21.35.14.1.35.18.62.26.5.15.86.34 1.1.56s.33.5.33.83c0 .37-.14.66-.41.87-.28.21-.66.32-1.13.32a2.2 2.2 0 0 1-.9-.18 1.27 1.27 0 0 1-.83-1.22h.88c0 .47.29.7.85.7.2 0 .37-.04.49-.12.11-.1.17-.21.17-.36zm4.7-2.44h-1.31v3.56H47v-3.56h-1.3v-.7h3.48v.7zm3.06 1.7h-1.68v1.15h1.98v.7h-2.86v-4.26h2.85v.71h-1.97v1.02h1.68v.69zm2.4.3h-.7v1.56h-.89v-4.27h1.59c.5 0 .89.11 1.16.34s.41.54.41.95c0 .3-.06.53-.19.73-.12.2-.31.35-.57.46l.92 1.75v.04h-.94l-.8-1.57zm-.7-.72h.7c.22 0 .4-.05.51-.16a.6.6 0 0 0 .19-.47c0-.2-.06-.36-.18-.47-.11-.12-.29-.18-.52-.18h-.7v1.28zm5.32.77v1.5h-.88v-4.26h1.66c.32 0 .6.06.85.18.24.11.43.28.56.5.13.21.2.46.2.73 0 .42-.15.75-.44 1-.28.23-.68.35-1.18.35h-.77zm0-.7h.78c.24 0 .41-.06.53-.17.13-.11.19-.27.19-.47 0-.21-.07-.38-.19-.5s-.3-.2-.5-.2h-.81v1.33zm5.56.36h-1.69v1.14h1.98v.7h-2.86v-4.26h2.86v.71h-1.98v1.02h1.69v.69zm4.08-1.7H67.6v3.55h-.88v-3.56h-1.29v-.7h3.48v.7zm3.07 1.7h-1.7v1.14h1.99v.7H69.4v-4.26h2.85v.71H70.3v1.02h1.69v.69zm2.38.29h-.7v1.56h-.87v-4.27h1.58c.5 0 .9.11 1.17.34s.4.54.4.95c0 .3-.06.53-.18.73-.13.2-.32.35-.58.46l.93 1.75v.04h-.95l-.8-1.57zm-.7-.72h.71c.22 0 .4-.05.52-.16a.6.6 0 0 0 .18-.47c0-.2-.06-.36-.17-.47-.12-.12-.3-.18-.53-.18h-.7v1.28zm5.17 1.16c0-.17-.06-.3-.18-.38a2.22 2.22 0 0 0-.63-.28c-.3-.1-.55-.2-.72-.3-.49-.26-.73-.61-.73-1.05 0-.23.06-.44.2-.62.12-.18.3-.32.55-.42.25-.1.52-.16.82-.16.3 0 .58.06.82.17.23.1.42.27.55.47.13.2.2.43.2.68h-.88c0-.2-.06-.35-.18-.45a.76.76 0 0 0-.52-.17.8.8 0 0 0-.5.14.43.43 0 0 0-.18.36c0 .14.07.25.2.35.15.1.35.18.62.26.5.15.87.34 1.1.56s.34.5.34.83c0 .37-.14.66-.42.87-.28.21-.66.32-1.13.32a2.2 2.2 0 0 1-.9-.18 1.27 1.27 0 0 1-.83-1.22h.89c0 .47.28.7.84.7.21 0 .37-.04.5-.12.1-.1.17-.21.17-.36z" />
    </symbol>
    <symbol id="Client-5" viewBox="0 0 106 60">
      <path
        d="M26.76 44.73c.24.28.37.63.36.98.02.23-.03.46-.13.68s-.24.4-.43.56c-.48.32-1.06.48-1.66.45H22v-6.2h2.84a2.6 2.6 0 0 1 1.58.42 1.38 1.38 0 0 1 .55 1.16c.02.34-.1.67-.33.94-.22.25-.52.42-.86.49.38.06.73.25.98.53zm-3.4-.93h1.2c.28.02.56-.05.78-.2.1-.08.16-.18.2-.28s.07-.22.06-.33c.01-.11 0-.22-.05-.33s-.12-.2-.2-.27a1.25 1.25 0 0 0-.8-.21h-1.2v1.62zm2.1 2.38c.1-.08.17-.18.22-.29s.07-.23.07-.34a.78.78 0 0 0-.3-.63 1.34 1.34 0 0 0-.82-.23h-1.28v1.7h1.3c.28.02.57-.06.8-.21zM32.57 47.4 31 44.98h-.6v2.42h-1.36v-6.2h2.58a2.7 2.7 0 0 1 1.8.53c.35.34.57.78.6 1.25s-.1.94-.41 1.31c-.32.34-.76.56-1.23.63l1.68 2.48h-1.48zm-2.18-3.27h1.12c.77 0 1.16-.31 1.16-.93a.94.94 0 0 0-.28-.7 1.28 1.28 0 0 0-.88-.25h-1.13l.01 1.88zM40.01 46.15H37.3l-.48 1.25h-1.43l2.5-6.12h1.54l2.48 6.12h-1.43l-.47-1.25zm-.36-.94-1-2.61-.98 2.61h1.98zM49.32 47.4h-1.35l-3.03-4.21v4.2H43.6v-6.18h1.35l3.03 4.23v-4.23h1.35v6.19zM57.03 45.91c-.28.47-.7.85-1.22 1.1-.59.27-1.24.4-1.9.39h-2.4v-6.2h2.4c.66-.01 1.31.12 1.9.39.52.24.94.61 1.22 1.08a3.36 3.36 0 0 1 0 3.24zm-1.54-.14c.38-.41.6-.94.6-1.48s-.22-1.07-.6-1.48a2.49 2.49 0 0 0-1.7-.52h-.93v4h.94a2.5 2.5 0 0 0 1.69-.52zM40.86 6.77S58.3 12.8 57.93 21.52v14.75S40.5 30.24 40.85 21.52V6.77zM73.46 32.82c3.3-2.08 7.1-3.36 11.08-3.74v-4.62a22.41 22.41 0 0 0-11.08 8.36z" />
      <path
        d="M71.48 34.2a23.1 23.1 0 0 1 13.06-10.7V10.18s-24.84 8.58-24.31 21V52.2s1.1-.38 2.85-1.1c0-.67 0-1.35.08-2.03a21.28 21.28 0 0 1 8.32-14.86z" />
      <path
        d="M69.12 42.01c.13-1.45.42-2.9.87-4.3a19.43 19.43 0 0 0-5.26 12.7c1.41-.63 3.05-1.4 4.78-2.31-.44-2-.57-4.05-.39-6.09zM70.1 42.09c-.16 1.84-.05 3.7.31 5.5 6.79-3.71 14.41-9.45 14.12-16.4v-.6a23.2 23.2 0 0 0-12.91 5.52 19.24 19.24 0 0 0-1.51 5.98z" />
    </symbol>
    <symbol id="Client-6" viewBox="0 0 106 60">
      <path
        d="M53.42 27.4a2.95 2.95 0 0 1-.6-1.98v-2.88c0-.89.2-1.56.6-2.02s1.09-.69 2.07-.68c.91 0 1.56.2 1.95.58.42.5.62 1.11.58 1.73v.68h-1.64v-.7c0-.22-.01-.44-.05-.66a.65.65 0 0 0-.24-.4.96.96 0 0 0-.59-.16 1 1 0 0 0-.63.17.77.77 0 0 0-.27.44c-.04.23-.07.47-.06.7v3.5c-.03.35.05.68.2 1 .1.1.2.18.34.23s.28.07.42.05a.9.9 0 0 0 .58-.15.7.7 0 0 0 .25-.43c.03-.23.05-.47.05-.7v-.71h1.64v.65c.04.64-.16 1.28-.57 1.81-.38.43-1.02.64-1.96.64s-1.66-.23-2.07-.7zM60.26 27.44c-.42-.45-.63-1.1-.63-1.97v-3.03c0-.86.21-1.5.63-1.95s1.1-.66 2.08-.66c.96 0 1.65.22 2.06.66.42.44.63 1.09.63 1.95v3.03c0 .86-.21 1.51-.63 1.97s-1.1.67-2.06.67-1.67-.23-2.08-.67zm2.84-.73c.15-.28.22-.59.2-.9V22.1c.02-.3-.05-.6-.2-.88-.08-.1-.2-.19-.33-.24s-.29-.07-.44-.05c-.14-.02-.3 0-.43.05s-.25.13-.34.24c-.15.27-.21.58-.2.88v3.73c-.01.3.05.62.2.9.1.1.22.17.35.22a1.19 1.19 0 0 0 .84 0c.14-.05.25-.13.35-.22v-.02zM67 19.92h1.77l1.33 5.6 1.36-5.6h1.72l.17 8.08h-1.27l-.14-5.61-1.3 5.61H69.6l-1.36-5.63-.12 5.63h-1.29l.16-8.08zM75.33 19.92h2.75c1.59 0 2.38.77 2.38 2.3 0 1.46-.83 2.2-2.5 2.2h-.94V28h-1.7v-8.08zm2.35 3.45c.17.02.34.01.5-.03s.31-.12.44-.22c.2-.27.28-.6.24-.91.01-.25-.02-.5-.08-.74-.02-.08-.07-.15-.13-.22s-.13-.12-.21-.16c-.24-.1-.5-.14-.76-.13h-.66v2.41h.66zM82.9 19.92h1.83L86.61 28h-1.59l-.37-1.86h-1.63L82.66 28h-1.61l1.87-8.08zm1.57 5.28-.64-3.39-.63 3.4h1.27zM88.12 19.92h1.19l2.27 4.61v-4.6H93V28h-1.13l-2.29-4.8V28h-1.46v-8.08zM96.3 24.92l-1.9-4.99H96l1.15 3.2 1.08-3.2h1.56l-1.86 5V28h-1.64v-3.08zM56.05 31.53v.42h-1.39v3.29h-.58v-3.29h-1.4v-.42h3.37zM60.4 35.24h-.45a.2.2 0 0 1-.13-.04.2.2 0 0 1-.08-.08l-.4-.88h-1.92l-.4.88a.24.24 0 0 1-.06.1.2.2 0 0 1-.13.03h-.45l1.7-3.7h.6l1.71 3.69zm-2.82-1.38h1.6l-.68-1.5a2.8 2.8 0 0 1-.12-.36l-.07.2-.06.16-.67 1.5zM63.32 34.87h.32a1.9 1.9 0 0 0 .52-.11l.22-.1v-.82h-.67a.13.13 0 0 1-.1-.03l-.02-.03v-.32h1.3v1.42a2.66 2.66 0 0 1-1.13.37c-.17.02-.33.03-.5.03-.3 0-.58-.05-.86-.14a2.09 2.09 0 0 1-.67-.39 1.78 1.78 0 0 1-.44-.58c-.1-.25-.16-.51-.16-.77 0-.27.05-.53.15-.78.1-.22.25-.42.44-.58.2-.17.43-.3.68-.39a2.85 2.85 0 0 1 1.38-.1 2.28 2.28 0 0 1 1.04.43l-.16.23-.05.05a.2.2 0 0 1-.08.02.22.22 0 0 1-.1-.03c-.06-.02-.11-.05-.17-.09a2.07 2.07 0 0 0-.97-.21c-.23 0-.45.03-.66.1-.19.07-.36.17-.5.3-.14.13-.25.28-.31.46-.16.4-.16.83 0 1.23a1.44 1.44 0 0 0 .84.76c.2.06.44.09.66.07zM68.74 34.81h1.85v.43h-2.42v-3.7h.58l-.01 3.27zM72.52 35.24h-.58v-3.7h.58v3.7zM74.68 31.55c.04.02.07.04.09.07l2.48 2.79v-2.89h.5v3.72h-.28c-.05 0-.1 0-.13-.02a.33.33 0 0 1-.1-.07l-2.47-2.8v2.89h-.49v-3.7h.4zM82.04 31.53v.41h-2.06v1.22h1.66v.4h-1.66v1.26h2.06v.4h-2.66v-3.69h2.66zM21.16 8.65l25.8 6.33v22.16l-25.8-6.32V8.66zm-1.65-1.88v25.12l29.1 7.14V13.9L19.5 6.77z" />
      <path d="M35.1 50.7 6 43.54V18.43l29.1 7.14v25.12z" />
      <path
        d="m19.99 8.37 25.46 6.25-10.83 9.35-25.46-6.25 10.83-9.35zm-.48-1.6L6 18.43l29.1 7.14L48.6 13.9 19.5 6.77zM36.74 49.28l11.87-10.25-11.87-2.91v13.16z" />
    </symbol>
    <!-- Benefits -->
    <symbol id="antenna" viewBox="0 0 70 70">
      <path fill="#212121"
        d="m67.32 48.34-18.47-18.6 2.05-10.1c.53.2 1.09.31 1.66.31h.01a4.72 4.72 0 1 0-4.4-3.13l-10.84 1.32L19.63.34A1.16 1.16 0 0 0 18.8 0c-.3 0-.6.12-.81.34l-3.31 3.29c-.46.45-.46 1.2 0 1.65l1.78 1.8a32.69 32.69 0 0 0 5.5 38.64c.1.1.21.16.33.22-.07.39-.11.79-.12 1.2v13.53h-14a5.84 5.84 0 0 0-5.83 5.83v2.33c0 .65.52 1.17 1.17 1.17h53.67c.64 0 1.16-.52 1.16-1.17V66.5a5.84 5.84 0 0 0-5.83-5.83h-14v-6a32.49 32.49 0 0 0 22.07-3.2l1.79 1.8c.22.22.51.34.82.35.3 0 .6-.13.82-.34l3.3-3.3c.46-.45.46-1.19 0-1.64zm-16.4-34.7a2.33 2.33 0 1 1 1.65 3.98 2.33 2.33 0 0 1-1.64-3.98zm-2.74 7.66-1.31 6.44-2.57-2.58 3.88-3.86zm-1.33-1.97-4.2 4.17-3.25-3.26 7.45-.91zM52.51 63a3.5 3.5 0 0 1 3.5 3.5v1.17H4.68V66.5a3.5 3.5 0 0 1 3.5-3.5H52.5zm-16.33-4.67v2.34H24.5v-2.34h11.67zM24.5 56v-8.87c0-2.83 2.62-5.13 5.83-5.13s5.83 2.3 5.83 5.13V56H24.51zm14-3.71v-5.16c0-4.11-3.66-7.46-8.17-7.46a8.31 8.31 0 0 0-7.18 3.9 30.34 30.34 0 0 1-4.98-34.75l40.7 40.92A30.23 30.23 0 0 1 38.5 52.3zm24.7-1.5L17.13 4.46l1.65-1.64 17.36 17.45.02.02 28.69 28.86-1.66 1.64z" />
      <path fill="#2196f3"
        d="M30.35 44.33a3.5 3.5 0 1 0-.02 7h.01a3.5 3.5 0 1 0 .01-7zm.82 4.33a1.16 1.16 0 1 1-.83-2 1.17 1.17 0 0 1 .82 2z" />
    </symbol>
    <symbol id="astronaut" viewBox="0 0 70 70">
      <path fill="#2196f3"
        d="M69.94 9.9c-.13-.42-.5-.73-.94-.8l-4.18-.6-1.87-3.8c-.39-.79-1.7-.79-2.09 0l-1.87 3.8-4.18.6a1.17 1.17 0 0 0-.65 2l3.03 2.94-.72 4.16a1.17 1.17 0 0 0 1.7 1.23l3.74-1.96 3.73 1.96a1.16 1.16 0 0 0 1.7-1.23l-.72-4.16 3.03-2.95c.31-.3.43-.77.3-1.2zm-5.38 2.9c-.28.27-.4.65-.34 1.03l.42 2.44-2.19-1.15a1.16 1.16 0 0 0-1.09 0l-2.19 1.15.42-2.44c.07-.38-.06-.76-.33-1.03l-1.78-1.73 2.45-.35c.38-.06.71-.3.88-.64l1.1-2.22L63 10.08c.17.34.5.58.88.64l2.45.35-1.77 1.73zM57.17 44.9h-2.34v2.33h2.34v-2.34zM57.17 49.56h-2.34v2.33h2.34v-2.33zM59.5 47.23h-2.33v2.33h2.33v-2.33zM54.83 47.23H52.5v2.33h2.33v-2.33zM49 57.73h-2.33v2.33H49v-2.33zM49 62.4h-2.33v2.33H49v-2.34zM51.33 60.06H49v2.33h2.33v-2.33zM46.67 60.06h-2.34v2.33h2.34v-2.33zM35 53.06h-2.33v2.33H35v-2.33zM35 57.73h-2.33v2.33H35v-2.33zM37.33 55.4H35v2.33h2.33v-2.34zM32.67 55.4h-2.34v2.33h2.34v-2.34zM12.83 13.4H10.5v2.32h2.33V13.4zM12.83 18.06H10.5v2.33h2.33v-2.33zM15.17 15.72h-2.34v2.34h2.34v-2.33zM10.5 15.72H8.17v2.34h2.33v-2.33z" />
      <path fill="#212121"
        d="M54.06 30.97a3.88 3.88 0 0 0-2.6-1.54 3.89 3.89 0 0 0-2.93.77l-2.73 2.1-4.16 3.1-2.97-1.18c5.3-2.38 9-7.67 9-13.82a15.22 15.22 0 0 0-30.46 0c0 3.03.91 5.85 2.46 8.22l-6.05-.06h-.01l-.05.02c-.12 0-.23.02-.34.06l-.08.03-.05.02-7.07 3.49-4.14 2a3.9 3.9 0 0 0 3.88 6.76l3.03-1.62 4.96-2.56 2.96-.02L4.81 48.6l-2.93 2.92a3.6 3.6 0 0 0 0 5.15 3.65 3.65 0 0 0 5.16 0L9.9 53.8l3.81-2.84 1.97 1.96-3.85 3.84-2.93 2.92a3.6 3.6 0 0 0 0 5.15 3.65 3.65 0 0 0 5.16 0l7.62-7.58 2.2-2.2.05-.04 11.3-12.37 7.6 1.08H43c.14 0 .27-.02.4-.07l.11-.06c.05-.02.09-.03.13-.06l7.03-4.66.06-.07.1-.05 2.77-2.6a3.9 3.9 0 0 0 .47-5.17zm-49.4 7.9c-.38.2-.81.25-1.22.12a1.56 1.56 0 0 1-.46-2.76l2.87-1.38.98 2.87-2.17 1.15zm7.65-4-3.39 1.75-.96-2.8 4.44-2.2-.09 3.25zM45.34 20.4c0 2.01-.48 3.9-1.31 5.6l-9.15-4.15a4.07 4.07 0 0 0-1.72-3.04l3.2-10.63c5.2 1.65 8.98 6.5 8.98 12.22zm-25.79 0A12.88 12.88 0 0 1 34.08 7.67l-3.14 10.4-.12-.01c-2.26 0-4.1 1.83-4.1 4.08a4.1 4.1 0 0 0 7.64 2.02L42.8 28a12.89 12.89 0 0 1-23.26-7.6zm13.03 1.75a1.76 1.76 0 0 1-3.53 0c0-.96.8-1.75 1.77-1.75s1.76.79 1.76 1.75zM5.4 55.01c-.52.5-1.35.5-1.87 0a1.3 1.3 0 0 1 0-1.85l2.1-2.1 1.87 1.86L5.39 55zm7.03 8.16c-.51.52-1.35.52-1.87 0a1.3 1.3 0 0 1 0-1.84l2.1-2.1 1.87 1.85-2.1 2.1zm7.62-7.58-3.87 3.85-1.86-1.86 3.86-3.83c.09-.1.14-.2.2-.3l.05-.1c.04-.08.05-.18.06-.27 0-.06.03-.1.03-.16 0-.08-.03-.15-.04-.23l-.04-.21c-.05-.11-.12-.2-.2-.3l-.06-.09-3.52-3.5c-.03-.04-.08-.05-.12-.08-.07-.05-.13-.1-.2-.13a1.03 1.03 0 0 0-.2-.07 1.15 1.15 0 0 0-.22-.04h-.21l-.23.05c-.07.02-.14.06-.2.1-.05.02-.1.03-.14.06l-3.88 2.9-1.97-1.96 5.25-5.22 9.54 9.38-2.03 2zm14.91-15.35h-.1a1.12 1.12 0 0 0-.65.17c-.07.04-.13.08-.18.13-.03.03-.07.04-.09.07L23.65 51.86l-9.46-9.3 6.2-6.17a1.17 1.17 0 0 0-.84-2l-4.85.03.06-3.51 6.79.05a15.2 15.2 0 0 0 13.7 4.33c.08.07.17.14.28.19l5.27 2.1.33 1.66.4 1.93-6.57-.93zm8.84.39-.68-3.41 3.16-2.36 2.07 2.75-4.55 3.02zm8.22-6.2-1.84 1.72-2.03-2.7 1.81-1.4a1.6 1.6 0 0 1 1.2-.31 1.57 1.57 0 0 1 .86 2.7z" />
      <path fill="#212121"
        d="m29.75 40.56-4.68-4.66a1.16 1.16 0 0 0-1.65 0l-4.69 4.66a1.17 1.17 0 0 0 0 1.66l4.7 4.67a1.17 1.17 0 0 0 1.64 0l4.69-4.67a1.17 1.17 0 0 0 0-1.66zm-5.5 3.85L21.2 41.4l3.03-3.02 3.04 3.02-3.04 3.02zM37.55 11.1l-.57 2.26c.16.04 3.8.99 3.8 4.7h2.34c0-4.41-3.65-6.49-5.57-6.97zM43.12 20.4h-2.33v2.33h2.33v-2.34z" />
    </symbol>
    <symbol id="clock" viewBox="0 0 70 70">
      <path fill="#212121"
        d="M68.46 33.47a33.48 33.48 0 1 0-43.66 31.9 1.47 1.47 0 0 0 1.16-.14c.3-.18.51-.45.62-.78l8.45-26.8a4.18 4.18 0 1 0-1.83-7.95L22.03 18.53a1.4 1.4 0 0 0-1.98 1.97l11.17 11.18a4.1 4.1 0 0 0 1.17 5.05l-8.06 25.53a30.72 30.72 0 1 1 23.13-.76l-.88-4.1a1.4 1.4 0 0 0-2.29-.75l-8.4 7.49a1.4 1.4 0 0 0 .51 2.37l10.72 3.42a1.4 1.4 0 0 0 1.79-1.62l-.86-4.02a33.37 33.37 0 0 0 20.41-30.82zm-33.48-1.4a1.4 1.4 0 1 1 0 2.8 1.4 1.4 0 0 1 0-2.8zm4.6 32.52 4.77-4.26 1.32 6.21-6.1-1.95z" />
      <path fill="#2196f3"
        d="M33.59 6.97v2.79a1.4 1.4 0 1 0 2.79 0v-2.8a1.4 1.4 0 0 0-2.8 0zM8.48 32.08a1.4 1.4 0 1 0 0 2.79h2.79a1.4 1.4 0 1 0 0-2.8h-2.8zM61.49 34.87a1.4 1.4 0 1 0 0-2.8h-2.8a1.4 1.4 0 0 0 0 2.8h2.8z" />
    </symbol>
    <symbol id="diagram" viewBox="0 0 70 70">
      <path fill="#2196f3"
        d="M32.65 32.73h2.33v10.5h-2.33v-10.5zM41.98 37.4h2.33v5.83h-2.33V37.4zM23.32 40.9h2.33v2.33h-2.33V40.9zM16.32 39.73h2.34v3.5h-2.33v-3.5z" />
      <path fill="#212121"
        d="M3.5 61.89h55.97a3.5 3.5 0 0 0 3.5-3.5v-4.67a3.5 3.5 0 0 0-3.5-3.5H58.3V21.16l6.63-6.28a3.52 3.52 0 1 0-1.64-1.67l-4.99 4.74v-2.7a3.5 3.5 0 0 0-3.5-3.5H8.16a3.5 3.5 0 0 0-3.5 3.5v34.99H3.5a3.5 3.5 0 0 0-3.5 3.5v4.66a3.5 3.5 0 0 0 3.5 3.5zm62.97-51.31a1.17 1.17 0 1 1 0 2.33 1.17 1.17 0 0 1 0-2.33zM7 15.24c0-.64.52-1.16 1.16-1.16H54.8c.65 0 1.17.52 1.17 1.16v4.9l-2.33 2.22v-4.78c0-.65-.52-1.17-1.17-1.17H10.5c-.64 0-1.16.52-1.16 1.17v29.15c0 .64.52 1.16 1.16 1.16h41.98c.65 0 1.17-.52 1.17-1.16V25.56l2.33-2.2v26.86H7V15.24zM17.5 30.4a3.5 3.5 0 1 0 2.41 6.02l4.06 2.03c.47.23 1.04.12 1.39-.27l8.62-9.7 8.47 6.35c.45.35 1.08.3 1.5-.08l7.36-6.97v17.78H11.66V18.74h39.65v5.82l-8.25 7.82-8.54-6.4a1.17 1.17 0 0 0-1.58.15l-8.73 9.83-3.27-1.63c.03-.14.04-.28.05-.43a3.5 3.5 0 0 0-3.5-3.5zm1.16 3.5a1.17 1.17 0 1 1-2.33 0 1.17 1.17 0 0 1 2.33 0zm7 18.66H37.3v1.16c0 .65-.52 1.17-1.16 1.17h-9.33c-.64 0-1.17-.52-1.17-1.17v-1.16zM2.32 53.72c0-.64.52-1.16 1.17-1.16h19.82v1.16a3.5 3.5 0 0 0 3.5 3.5h9.33a3.5 3.5 0 0 0 3.5-3.5v-1.16h19.82c.64 0 1.16.52 1.16 1.16v4.67c0 .64-.52 1.16-1.16 1.16H3.5c-.65 0-1.17-.52-1.17-1.16v-4.67z" />
    </symbol>
  </defs>
</svg>